<svg width="20" height="20" viewBox="0 0 20 20" fill="none" xmlns="http://www.w3.org/2000/svg">
<path d="M15.3385 3.46C15.1012 3.46 14.8692 3.53038 14.6719 3.66224C14.4745 3.79409 14.3207 3.98151 14.2299 4.20078C14.1391 4.42005 14.1153 4.66133 14.1616 4.89411C14.2079 5.12689 14.3222 5.34071 14.49 5.50853C14.6578 5.67635 14.8716 5.79064 15.1044 5.83694C15.3372 5.88324 15.5785 5.85948 15.7978 5.76866C16.017 5.67783 16.2044 5.52402 16.3363 5.32668C16.4682 5.12935 16.5385 4.89734 16.5385 4.66C16.5385 4.34174 16.4121 4.03652 16.1871 3.81147C15.962 3.58643 15.6568 3.46 15.3385 3.46ZM19.9385 5.88C19.9191 5.0503 19.7637 4.2294 19.4785 3.45C19.2243 2.78313 18.8285 2.17928 18.3185 1.68C17.8234 1.16743 17.2181 0.774176 16.5485 0.53C15.7712 0.236161 14.9494 0.07721 14.1185 0.0599999C13.0585 -5.58794e-08 12.7185 0 9.99854 0C7.27853 0 6.93854 -5.58794e-08 5.87854 0.0599999C5.04769 0.07721 4.22588 0.236161 3.44853 0.53C2.78021 0.776649 2.17547 1.16956 1.67854 1.68C1.16596 2.17518 0.772712 2.78044 0.528535 3.45C0.234696 4.22734 0.0757452 5.04915 0.0585351 5.88C-0.0014649 6.94 -0.00146484 7.28 -0.00146484 10C-0.00146484 12.72 -0.0014649 13.06 0.0585351 14.12C0.0757452 14.9508 0.234696 15.7727 0.528535 16.55C0.772712 17.2196 1.16596 17.8248 1.67854 18.32C2.17547 18.8304 2.78021 19.2234 3.44853 19.47C4.22588 19.7638 5.04769 19.9228 5.87854 19.94C6.93854 20 7.27853 20 9.99854 20C12.7185 20 13.0585 20 14.1185 19.94C14.9494 19.9228 15.7712 19.7638 16.5485 19.47C17.2181 19.2258 17.8234 18.8326 18.3185 18.32C18.8308 17.8226 19.2269 17.2182 19.4785 16.55C19.7637 15.7706 19.9191 14.9497 19.9385 14.12C19.9385 13.06 19.9985 12.72 19.9985 10C19.9985 7.28 19.9985 6.94 19.9385 5.88ZM18.1385 14C18.1313 14.6348 18.0163 15.2637 17.7985 15.86C17.6389 16.2952 17.3824 16.6884 17.0485 17.01C16.7242 17.3405 16.3318 17.5964 15.8985 17.76C15.3022 17.9778 14.6733 18.0927 14.0385 18.1C13.0385 18.15 12.6685 18.16 10.0385 18.16C7.40854 18.16 7.03854 18.16 6.03854 18.1C5.37943 18.1123 4.72313 18.0109 4.09854 17.8C3.68432 17.6281 3.30989 17.3728 2.99854 17.05C2.66662 16.7287 2.41338 16.3352 2.25854 15.9C2.01439 15.2952 1.87898 14.6519 1.85854 14C1.85854 13 1.79854 12.63 1.79854 10C1.79854 7.37 1.79854 7 1.85854 6C1.86302 5.35106 1.98149 4.70795 2.20854 4.1C2.38458 3.67791 2.6548 3.30166 2.99854 3C3.30235 2.65617 3.67782 2.3831 4.09854 2.2C4.70809 1.98004 5.35053 1.86508 5.99854 1.86C6.99854 1.86 7.36854 1.8 9.99854 1.8C12.6285 1.8 12.9985 1.8 13.9985 1.86C14.6333 1.86728 15.2622 1.98225 15.8585 2.2C16.313 2.36865 16.7208 2.64285 17.0485 3C17.3762 3.30718 17.6323 3.68273 17.7985 4.1C18.0208 4.70893 18.1358 5.35178 18.1385 6C18.1885 7 18.1985 7.37 18.1985 10C18.1985 12.63 18.1885 13 18.1385 14ZM9.99854 4.87C8.98435 4.87198 7.9935 5.17453 7.15119 5.73942C6.30888 6.30431 5.65291 7.1062 5.26617 8.04375C4.87942 8.98131 4.77926 10.0125 4.97833 11.0069C5.1774 12.0014 5.66677 12.9145 6.38461 13.631C7.10245 14.3474 8.01655 14.835 9.01139 15.0321C10.0062 15.2293 11.0372 15.1271 11.974 14.7385C12.9108 14.35 13.7114 13.6924 14.2747 12.849C14.8379 12.0056 15.1385 11.0142 15.1385 10C15.1399 9.3251 15.0077 8.65661 14.7498 8.03296C14.4918 7.40931 14.1131 6.84281 13.6354 6.36605C13.1577 5.88929 12.5905 5.51168 11.9663 5.25493C11.3422 4.99818 10.6734 4.86736 9.99854 4.87ZM9.99854 13.33C9.33992 13.33 8.6961 13.1347 8.14849 12.7688C7.60087 12.4029 7.17406 11.8828 6.92202 11.2743C6.66998 10.6659 6.60403 9.99631 6.73252 9.35035C6.86101 8.70439 7.17816 8.11104 7.64387 7.64533C8.10958 7.17963 8.70293 6.86247 9.34888 6.73398C9.99484 6.6055 10.6644 6.67144 11.2729 6.92348C11.8813 7.17552 12.4014 7.60234 12.7673 8.14995C13.1332 8.69757 13.3285 9.34139 13.3285 10C13.3285 10.4373 13.2424 10.8703 13.0751 11.2743C12.9077 11.6784 12.6624 12.0454 12.3532 12.3547C12.044 12.6639 11.6769 12.9092 11.2729 13.0765C10.8689 13.2439 10.4358 13.33 9.99854 13.33Z" fill="#042257"/>
</svg>
